<svg width="5067" height="5067" xmlns="http://www.w3.org/2000/svg">

 <g>
  <title>background</title>
  <rect fill="none" id="canvas_background" height="402" width="582" y="-1" x="-1"/>
 </g>
 <g>
  <title>Layer 1</title>
  <path fill="#ffffff" id="svg_3" d="m4120,1689l-14,-15l-212,2c-327,6 -659,9 -987,15l-204,1l-15,15l0,195l15,14l124,6l375,15l18,1l-21,20c-219,184 -434,368 -653,554l-32,-3c-186,-230 -376,-461 -561,-695l-131,-162l7,0l215,-19l229,-17l15,-15l22,-196l-15,-19c-561,0 -1122,0 -1679,0l-15,19l0,189l22,22l470,33l29,14l408,501c182,220 364,439 547,658l7,25l0,215l0,364l-11,15l-237,20l-284,22l-18,16l3,164l15,18c554,0 1100,0 1650,0l11,0l7,-10l0,-175l-7,-13l-76,-2l-445,-18l-18,-19c7,-207 11,-413 14,-622l11,-17l219,-194c234,-208 470,-418 703,-627l22,-11l102,-7l361,-28l14,-16l0,-233z" class="fil1"/>
  <polygon fill="#ffffff" id="svg_4" points="4466,2199 4455,2237 4353,2674 4233,3162 4226,3168 4055,3149 4044,3148 4037,3143 4037,3082 4040,3026 4044,2858 4047,2674 4051,2492 4055,2310 4058,2181 4062,2173 4168,2181 4237,2184 4364,2191 4444,2193 4466,2195 " class="fil1"/>
  <polygon fill="#ffffff" id="svg_5" points="4135,3497 4026,3497 4018,3492 4007,3388 4000,3286 4004,3284 4058,3288 4139,3294 4230,3301 4248,3303 4255,3308 4255,3492 4248,3497 " class="fil1"/>
 </g>
</svg>